<?xml version="1.0" standalone="no"?>
<!DOCTYPE svg PUBLIC "-//W3C//DTD SVG 20010904//EN"
 "http://www.w3.org/TR/2001/REC-SVG-20010904/DTD/svg10.dtd">
<svg version="1.0" xmlns="http://www.w3.org/2000/svg"
 width="336.000000pt" height="336.000000pt" viewBox="0 0 336.000000 336.000000"
 preserveAspectRatio="xMidYMid meet">
<metadata>
Created by potrace 1.11, written by Peter Selinger 2001-2013
</metadata>
<g transform="translate(0.000000,336.000000) scale(0.100000,-0.100000)"
fill="#000000" stroke="none">
<path d="M1898 3333 c-8 -10 -50 -83 -92 -163 -43 -80 -83 -148 -89 -152 -7
-4 -42 -8 -79 -8 -67 0 -67 0 -101 43 -18 23 -68 93 -111 155 -47 68 -84 112
-94 112 -30 0 -320 -101 -332 -115 -9 -11 -8 -55 2 -183 7 -92 12 -176 10
-185 -4 -22 -118 -100 -146 -99 -11 0 -93 30 -181 66 -107 45 -165 64 -177 59
-20 -10 -218 -254 -218 -269 0 -7 44 -70 98 -140 54 -71 104 -139 111 -151 10
-20 6 -35 -25 -107 -19 -47 -43 -87 -51 -90 -8 -3 -90 -20 -181 -36 -91 -16
-172 -36 -179 -43 -14 -14 -43 -216 -43 -298 l0 -46 161 -58 c88 -32 169 -65
180 -74 18 -15 49 -140 49 -197 0 -14 -42 -60 -128 -139 -70 -65 -131 -126
-135 -136 -7 -12 11 -56 62 -157 39 -77 77 -142 85 -145 7 -3 91 12 187 33
107 24 179 35 188 30 27 -14 151 -147 151 -162 0 -7 -18 -83 -41 -168 -22 -85
-39 -166 -37 -180 2 -21 25 -38 128 -97 69 -40 136 -72 150 -73 19 0 55 30
150 125 85 86 132 125 147 125 42 0 178 -33 195 -48 9 -8 40 -85 69 -171 28
-86 56 -162 62 -169 21 -26 321 -7 343 22 6 8 25 88 44 178 19 97 39 170 49
180 16 17 161 78 185 78 7 0 75 -49 151 -110 76 -60 145 -110 155 -110 9 0 74
43 143 95 97 72 127 101 127 118 0 12 -27 92 -60 177 -33 85 -60 162 -60 171
0 20 93 144 114 152 8 3 91 -2 183 -12 99 -11 175 -15 184 -10 21 11 132 316
122 334 -5 7 -73 62 -153 121 l-145 109 2 74 c1 41 4 80 7 88 3 7 77 49 166
93 l160 80 0 40 c0 54 -57 312 -73 326 -7 7 -83 16 -191 23 -99 7 -183 14
-188 17 -16 10 -68 109 -68 129 0 11 41 88 90 170 49 83 90 155 90 161 0 20
-241 264 -261 264 -10 0 -89 -39 -174 -86 -171 -94 -169 -94 -246 -45 l-46 29
-6 99 c-4 54 -7 137 -7 185 0 80 -2 89 -22 102 -20 12 -308 86 -336 86 -5 0
-16 -8 -24 -17z m-153 -1067 c79 -33 98 -138 36 -200 -29 -29 -36 -31 -101
-31 -65 0 -72 2 -101 31 -23 23 -32 43 -36 75 -10 103 97 169 202 125z m-585
-52 c139 -39 226 -139 254 -297 l7 -38 -126 3 -127 3 -13 39 c-8 22 -25 51
-40 65 -23 24 -33 26 -105 26 -74 0 -81 -2 -111 -30 -55 -52 -72 -105 -77
-240 -6 -181 17 -264 91 -319 37 -28 157 -35 210 -12 l37 15 0 70 0 71 -85 0
-85 0 0 90 0 90 215 0 215 0 0 -214 0 -214 -32 -28 c-93 -78 -295 -124 -456
-104 -255 32 -395 240 -378 560 10 177 51 284 143 371 115 108 283 142 463 93z
m1175 -263 c22 -10 46 -25 54 -34 17 -21 31 -13 31 19 l0 24 115 0 116 0 -3
-407 c-3 -404 -3 -408 -27 -460 -83 -184 -370 -252 -580 -137 -28 15 -56 32
-61 39 -11 14 85 162 102 157 6 -2 23 -11 37 -22 68 -48 179 -49 232 -2 27 25
58 106 45 119 -3 3 -20 -6 -38 -20 -96 -74 -253 -47 -346 59 -68 77 -86 137
-87 289 0 100 4 142 18 182 33 94 104 170 184 199 56 19 160 17 208 -5z m-525
-371 l0 -380 -130 0 -130 0 0 373 c0 206 3 377 7 380 3 4 62 7 130 7 l123 0 0
-380z"/>
<path d="M2225 1737 c-72 -72 -75 -248 -5 -319 24 -23 37 -28 78 -28 35 0 57
6 76 21 l26 20 0 150 0 149 -32 20 c-52 31 -104 26 -143 -13z"/>
</g>
</svg>
